<svg width="890" height="387" viewBox="0 0 890 387" fill="none" xmlns="http://www.w3.org/2000/svg">
<path d="M21 324L873 179" stroke="#29C5F6" stroke-width="2"/>
<path d="M21 258L873 145" stroke="#67FF1F" stroke-width="2" stroke-dasharray="4 4"/>
<path d="M21 131L873 84" stroke="#67FF1F" stroke-width="2" stroke-dasharray="4 4"/>
<path d="M21 83L873 49" stroke="#FF4FD8" stroke-width="2"/>
<path d="M21 188L873 115" stroke="#844AFF" stroke-width="2"/>
<path d="M21 317L873 171" stroke="#FFEF64" stroke-width="2"/>
<path d="M618.868 28.14H615.22L614.548 30H613.396L616.42 21.684H617.68L620.692 30H619.54L618.868 28.14ZM618.556 27.252L617.044 23.028L615.532 27.252H618.556ZM627.842 23.424V30H626.75V29.028C626.542 29.364 626.25 29.628 625.874 29.82C625.506 30.004 625.098 30.096 624.65 30.096C624.138 30.096 623.678 29.992 623.27 29.784C622.862 29.568 622.538 29.248 622.298 28.824C622.066 28.4 621.95 27.884 621.95 27.276V23.424H623.03V27.132C623.03 27.78 623.194 28.28 623.522 28.632C623.85 28.976 624.298 29.148 624.866 29.148C625.45 29.148 625.91 28.968 626.246 28.608C626.582 28.248 626.75 27.724 626.75 27.036V23.424H627.842ZM631.018 24.324V28.2C631.018 28.52 631.086 28.748 631.222 28.884C631.358 29.012 631.594 29.076 631.93 29.076H632.734V30H631.75C631.142 30 630.686 29.86 630.382 29.58C630.078 29.3 629.926 28.84 629.926 28.2V24.324H629.074V23.424H629.926V21.768H631.018V23.424H632.734V24.324H631.018ZM636.925 30.108C636.309 30.108 635.749 29.968 635.245 29.688C634.749 29.408 634.357 29.012 634.069 28.5C633.789 27.98 633.649 27.38 633.649 26.7C633.649 26.028 633.793 25.436 634.081 24.924C634.377 24.404 634.777 24.008 635.281 23.736C635.785 23.456 636.349 23.316 636.973 23.316C637.597 23.316 638.161 23.456 638.665 23.736C639.169 24.008 639.565 24.4 639.853 24.912C640.149 25.424 640.297 26.02 640.297 26.7C640.297 27.38 640.145 27.98 639.841 28.5C639.545 29.012 639.141 29.408 638.629 29.688C638.117 29.968 637.549 30.108 636.925 30.108ZM636.925 29.148C637.317 29.148 637.685 29.056 638.029 28.872C638.373 28.688 638.649 28.412 638.857 28.044C639.073 27.676 639.181 27.228 639.181 26.7C639.181 26.172 639.077 25.724 638.869 25.356C638.661 24.988 638.389 24.716 638.053 24.54C637.717 24.356 637.353 24.264 636.961 24.264C636.561 24.264 636.193 24.356 635.857 24.54C635.529 24.716 635.265 24.988 635.065 25.356C634.865 25.724 634.765 26.172 634.765 26.7C634.765 27.236 634.861 27.688 635.053 28.056C635.253 28.424 635.517 28.7 635.845 28.884C636.173 29.06 636.533 29.148 636.925 29.148ZM649.641 23.304C650.153 23.304 650.609 23.412 651.009 23.628C651.409 23.836 651.725 24.152 651.957 24.576C652.189 25 652.305 25.516 652.305 26.124V30H651.225V26.28C651.225 25.624 651.061 25.124 650.733 24.78C650.413 24.428 649.977 24.252 649.425 24.252C648.857 24.252 648.405 24.436 648.069 24.804C647.733 25.164 647.565 25.688 647.565 26.376V30H646.485V26.28C646.485 25.624 646.321 25.124 645.993 24.78C645.673 24.428 645.237 24.252 644.685 24.252C644.117 24.252 643.665 24.436 643.329 24.804C642.993 25.164 642.825 25.688 642.825 26.376V30H641.733V23.424H642.825V24.372C643.041 24.028 643.329 23.764 643.689 23.58C644.057 23.396 644.461 23.304 644.901 23.304C645.453 23.304 645.941 23.428 646.365 23.676C646.789 23.924 647.105 24.288 647.313 24.768C647.497 24.304 647.801 23.944 648.225 23.688C648.649 23.432 649.121 23.304 649.641 23.304ZM653.688 26.688C653.688 26.016 653.824 25.428 654.096 24.924C654.368 24.412 654.74 24.016 655.212 23.736C655.692 23.456 656.224 23.316 656.808 23.316C657.384 23.316 657.884 23.44 658.308 23.688C658.732 23.936 659.048 24.248 659.256 24.624V23.424H660.36V30H659.256V28.776C659.04 29.16 658.716 29.48 658.284 29.736C657.86 29.984 657.364 30.108 656.796 30.108C656.212 30.108 655.684 29.964 655.212 29.676C654.74 29.388 654.368 28.984 654.096 28.464C653.824 27.944 653.688 27.352 653.688 26.688ZM659.256 26.7C659.256 26.204 659.156 25.772 658.956 25.404C658.756 25.036 658.484 24.756 658.14 24.564C657.804 24.364 657.432 24.264 657.024 24.264C656.616 24.264 656.244 24.36 655.908 24.552C655.572 24.744 655.304 25.024 655.104 25.392C654.904 25.76 654.804 26.192 654.804 26.688C654.804 27.192 654.904 27.632 655.104 28.008C655.304 28.376 655.572 28.66 655.908 28.86C656.244 29.052 656.616 29.148 657.024 29.148C657.432 29.148 657.804 29.052 658.14 28.86C658.484 28.66 658.756 28.376 658.956 28.008C659.156 27.632 659.256 27.196 659.256 26.7ZM663.537 24.324V28.2C663.537 28.52 663.605 28.748 663.741 28.884C663.877 29.012 664.113 29.076 664.449 29.076H665.253V30H664.269C663.661 30 663.205 29.86 662.901 29.58C662.597 29.3 662.445 28.84 662.445 28.2V24.324H661.593V23.424H662.445V21.768H663.537V23.424H665.253V24.324H663.537ZM667.14 22.356C666.932 22.356 666.756 22.284 666.612 22.14C666.468 21.996 666.396 21.82 666.396 21.612C666.396 21.404 666.468 21.228 666.612 21.084C666.756 20.94 666.932 20.868 667.14 20.868C667.34 20.868 667.508 20.94 667.644 21.084C667.788 21.228 667.86 21.404 667.86 21.612C667.86 21.82 667.788 21.996 667.644 22.14C667.508 22.284 667.34 22.356 667.14 22.356ZM667.668 23.424V30H666.576V23.424H667.668ZM669.121 26.7C669.121 26.02 669.257 25.428 669.529 24.924C669.801 24.412 670.177 24.016 670.657 23.736C671.145 23.456 671.701 23.316 672.325 23.316C673.133 23.316 673.797 23.512 674.317 23.904C674.845 24.296 675.193 24.84 675.361 25.536H674.185C674.073 25.136 673.853 24.82 673.525 24.588C673.205 24.356 672.805 24.24 672.325 24.24C671.701 24.24 671.197 24.456 670.813 24.888C670.429 25.312 670.237 25.916 670.237 26.7C670.237 27.492 670.429 28.104 670.813 28.536C671.197 28.968 671.701 29.184 672.325 29.184C672.805 29.184 673.205 29.072 673.525 28.848C673.845 28.624 674.065 28.304 674.185 27.888H675.361C675.185 28.56 674.833 29.1 674.305 29.508C673.777 29.908 673.117 30.108 672.325 30.108C671.701 30.108 671.145 29.968 670.657 29.688C670.177 29.408 669.801 29.012 669.529 28.5C669.257 27.988 669.121 27.388 669.121 26.7ZM682.346 30.108C681.842 30.108 681.39 30.024 680.99 29.856C680.59 29.68 680.274 29.44 680.042 29.136C679.81 28.824 679.682 28.468 679.658 28.068H680.786C680.818 28.396 680.97 28.664 681.242 28.872C681.522 29.08 681.886 29.184 682.334 29.184C682.75 29.184 683.078 29.092 683.318 28.908C683.558 28.724 683.678 28.492 683.678 28.212C683.678 27.924 683.55 27.712 683.294 27.576C683.038 27.432 682.642 27.292 682.106 27.156C681.618 27.028 681.218 26.9 680.906 26.772C680.602 26.636 680.338 26.44 680.114 26.184C679.898 25.92 679.79 25.576 679.79 25.152C679.79 24.816 679.89 24.508 680.09 24.228C680.29 23.948 680.574 23.728 680.942 23.568C681.31 23.4 681.73 23.316 682.202 23.316C682.93 23.316 683.518 23.5 683.966 23.868C684.414 24.236 684.654 24.74 684.686 25.38H683.594C683.57 25.036 683.43 24.76 683.174 24.552C682.926 24.344 682.59 24.24 682.166 24.24C681.774 24.24 681.462 24.324 681.23 24.492C680.998 24.66 680.882 24.88 680.882 25.152C680.882 25.368 680.95 25.548 681.086 25.692C681.23 25.828 681.406 25.94 681.614 26.028C681.83 26.108 682.126 26.2 682.502 26.304C682.974 26.432 683.358 26.56 683.654 26.688C683.95 26.808 684.202 26.992 684.41 27.24C684.626 27.488 684.738 27.812 684.746 28.212C684.746 28.572 684.646 28.896 684.446 29.184C684.246 29.472 683.962 29.7 683.594 29.868C683.234 30.028 682.818 30.108 682.346 30.108ZM692.287 26.46C692.287 26.668 692.275 26.888 692.251 27.12H686.995C687.035 27.768 687.255 28.276 687.655 28.644C688.063 29.004 688.555 29.184 689.131 29.184C689.603 29.184 689.995 29.076 690.307 28.86C690.627 28.636 690.851 28.34 690.979 27.972H692.155C691.979 28.604 691.627 29.12 691.099 29.52C690.571 29.912 689.915 30.108 689.131 30.108C688.507 30.108 687.947 29.968 687.451 29.688C686.963 29.408 686.579 29.012 686.299 28.5C686.019 27.98 685.879 27.38 685.879 26.7C685.879 26.02 686.015 25.424 686.287 24.912C686.559 24.4 686.939 24.008 687.427 23.736C687.923 23.456 688.491 23.316 689.131 23.316C689.755 23.316 690.307 23.452 690.787 23.724C691.267 23.996 691.635 24.372 691.891 24.852C692.155 25.324 692.287 25.86 692.287 26.46ZM691.159 26.232C691.159 25.816 691.067 25.46 690.883 25.164C690.699 24.86 690.447 24.632 690.127 24.48C689.815 24.32 689.467 24.24 689.083 24.24C688.531 24.24 688.059 24.416 687.667 24.768C687.283 25.12 687.063 25.608 687.007 26.232H691.159ZM694.821 21.12V30H693.729V21.12H694.821ZM697.774 21.12V30H696.682V21.12H697.774ZM700.727 24.648C700.951 24.256 701.279 23.936 701.711 23.688C702.143 23.44 702.635 23.316 703.187 23.316C703.779 23.316 704.311 23.456 704.783 23.736C705.255 24.016 705.627 24.412 705.899 24.924C706.171 25.428 706.307 26.016 706.307 26.688C706.307 27.352 706.171 27.944 705.899 28.464C705.627 28.984 705.251 29.388 704.771 29.676C704.299 29.964 703.771 30.108 703.187 30.108C702.619 30.108 702.119 29.984 701.687 29.736C701.263 29.488 700.943 29.172 700.727 28.788V30H699.635V21.12H700.727V24.648ZM705.191 26.688C705.191 26.192 705.091 25.76 704.891 25.392C704.691 25.024 704.419 24.744 704.075 24.552C703.739 24.36 703.367 24.264 702.959 24.264C702.559 24.264 702.187 24.364 701.843 24.564C701.507 24.756 701.235 25.04 701.027 25.416C700.827 25.784 700.727 26.212 700.727 26.7C700.727 27.196 700.827 27.632 701.027 28.008C701.235 28.376 701.507 28.66 701.843 28.86C702.187 29.052 702.559 29.148 702.959 29.148C703.367 29.148 703.739 29.052 704.075 28.86C704.419 28.66 704.691 28.376 704.891 28.008C705.091 27.632 705.191 27.192 705.191 26.688ZM707.336 26.688C707.336 26.016 707.472 25.428 707.744 24.924C708.016 24.412 708.388 24.016 708.86 23.736C709.34 23.456 709.872 23.316 710.456 23.316C711.032 23.316 711.532 23.44 711.956 23.688C712.38 23.936 712.696 24.248 712.904 24.624V23.424H714.008V30H712.904V28.776C712.688 29.16 712.364 29.48 711.932 29.736C711.508 29.984 711.012 30.108 710.444 30.108C709.86 30.108 709.332 29.964 708.86 29.676C708.388 29.388 708.016 28.984 707.744 28.464C707.472 27.944 707.336 27.352 707.336 26.688ZM712.904 26.7C712.904 26.204 712.804 25.772 712.604 25.404C712.404 25.036 712.132 24.756 711.788 24.564C711.452 24.364 711.08 24.264 710.672 24.264C710.264 24.264 709.892 24.36 709.556 24.552C709.22 24.744 708.952 25.024 708.752 25.392C708.552 25.76 708.452 26.192 708.452 26.688C708.452 27.192 708.552 27.632 708.752 28.008C708.952 28.376 709.22 28.66 709.556 28.86C709.892 29.052 710.264 29.148 710.672 29.148C711.08 29.148 711.452 29.052 711.788 28.86C712.132 28.66 712.404 28.376 712.604 28.008C712.804 27.632 712.904 27.196 712.904 26.7ZM715.446 26.7C715.446 26.02 715.582 25.428 715.854 24.924C716.126 24.412 716.502 24.016 716.982 23.736C717.47 23.456 718.026 23.316 718.65 23.316C719.458 23.316 720.122 23.512 720.642 23.904C721.17 24.296 721.518 24.84 721.686 25.536H720.51C720.398 25.136 720.178 24.82 719.85 24.588C719.53 24.356 719.13 24.24 718.65 24.24C718.026 24.24 717.522 24.456 717.138 24.888C716.754 25.312 716.562 25.916 716.562 26.7C716.562 27.492 716.754 28.104 717.138 28.536C717.522 28.968 718.026 29.184 718.65 29.184C719.13 29.184 719.53 29.072 719.85 28.848C720.17 28.624 720.39 28.304 720.51 27.888H721.686C721.51 28.56 721.158 29.1 720.63 29.508C720.102 29.908 719.442 30.108 718.65 30.108C718.026 30.108 717.47 29.968 716.982 29.688C716.502 29.408 716.126 29.012 715.854 28.5C715.582 27.988 715.446 27.388 715.446 26.7ZM726.815 30L724.235 27.096V30H723.143V21.12H724.235V26.34L726.767 23.424H728.291L725.195 26.7L728.303 30H726.815ZM731.647 30.108C731.143 30.108 730.691 30.024 730.291 29.856C729.891 29.68 729.575 29.44 729.343 29.136C729.111 28.824 728.983 28.468 728.959 28.068H730.087C730.119 28.396 730.271 28.664 730.543 28.872C730.823 29.08 731.187 29.184 731.635 29.184C732.051 29.184 732.379 29.092 732.619 28.908C732.859 28.724 732.979 28.492 732.979 28.212C732.979 27.924 732.851 27.712 732.595 27.576C732.339 27.432 731.943 27.292 731.407 27.156C730.919 27.028 730.519 26.9 730.207 26.772C729.903 26.636 729.639 26.44 729.415 26.184C729.199 25.92 729.091 25.576 729.091 25.152C729.091 24.816 729.191 24.508 729.391 24.228C729.591 23.948 729.875 23.728 730.243 23.568C730.611 23.4 731.031 23.316 731.503 23.316C732.231 23.316 732.819 23.5 733.267 23.868C733.715 24.236 733.955 24.74 733.987 25.38H732.895C732.871 25.036 732.731 24.76 732.475 24.552C732.227 24.344 731.891 24.24 731.467 24.24C731.075 24.24 730.763 24.324 730.531 24.492C730.299 24.66 730.183 24.88 730.183 25.152C730.183 25.368 730.251 25.548 730.387 25.692C730.531 25.828 730.707 25.94 730.915 26.028C731.131 26.108 731.427 26.2 731.803 26.304C732.275 26.432 732.659 26.56 732.955 26.688C733.251 26.808 733.503 26.992 733.711 27.24C733.927 27.488 734.039 27.812 734.047 28.212C734.047 28.572 733.947 28.896 733.747 29.184C733.547 29.472 733.263 29.7 732.895 29.868C732.535 30.028 732.119 30.108 731.647 30.108Z" fill="white"/>
<path d="M817.576 32.084C817.024 32.084 816.528 31.988 816.088 31.796C815.656 31.596 815.316 31.324 815.068 30.98C814.82 30.628 814.692 30.224 814.684 29.768H815.848C815.888 30.16 816.048 30.492 816.328 30.764C816.616 31.028 817.032 31.16 817.576 31.16C818.096 31.16 818.504 31.032 818.8 30.776C819.104 30.512 819.256 30.176 819.256 29.768C819.256 29.448 819.168 29.188 818.992 28.988C818.816 28.788 818.596 28.636 818.332 28.532C818.068 28.428 817.712 28.316 817.264 28.196C816.712 28.052 816.268 27.908 815.932 27.764C815.604 27.62 815.32 27.396 815.08 27.092C814.848 26.78 814.732 26.364 814.732 25.844C814.732 25.388 814.848 24.984 815.08 24.632C815.312 24.28 815.636 24.008 816.052 23.816C816.476 23.624 816.96 23.528 817.504 23.528C818.288 23.528 818.928 23.724 819.424 24.116C819.928 24.508 820.212 25.028 820.276 25.676H819.076C819.036 25.356 818.868 25.076 818.572 24.836C818.276 24.588 817.884 24.464 817.396 24.464C816.94 24.464 816.568 24.584 816.28 24.824C815.992 25.056 815.848 25.384 815.848 25.808C815.848 26.112 815.932 26.36 816.1 26.552C816.276 26.744 816.488 26.892 816.736 26.996C816.992 27.092 817.348 27.204 817.804 27.332C818.356 27.484 818.8 27.636 819.136 27.788C819.472 27.932 819.76 28.16 820 28.472C820.24 28.776 820.36 29.192 820.36 29.72C820.36 30.128 820.252 30.512 820.036 30.872C819.82 31.232 819.5 31.524 819.076 31.748C818.652 31.972 818.152 32.084 817.576 32.084ZM827.967 28.46C827.967 28.668 827.955 28.888 827.931 29.12H822.675C822.715 29.768 822.935 30.276 823.335 30.644C823.743 31.004 824.235 31.184 824.811 31.184C825.283 31.184 825.675 31.076 825.987 30.86C826.307 30.636 826.531 30.34 826.659 29.972H827.835C827.659 30.604 827.307 31.12 826.779 31.52C826.251 31.912 825.595 32.108 824.811 32.108C824.187 32.108 823.627 31.968 823.131 31.688C822.643 31.408 822.259 31.012 821.979 30.5C821.699 29.98 821.559 29.38 821.559 28.7C821.559 28.02 821.695 27.424 821.967 26.912C822.239 26.4 822.619 26.008 823.107 25.736C823.603 25.456 824.171 25.316 824.811 25.316C825.435 25.316 825.987 25.452 826.467 25.724C826.947 25.996 827.315 26.372 827.571 26.852C827.835 27.324 827.967 27.86 827.967 28.46ZM826.839 28.232C826.839 27.816 826.747 27.46 826.563 27.164C826.379 26.86 826.127 26.632 825.807 26.48C825.495 26.32 825.147 26.24 824.763 26.24C824.211 26.24 823.739 26.416 823.347 26.768C822.963 27.12 822.743 27.608 822.687 28.232H826.839ZM830.5 23.12V32H829.408V23.12H830.5ZM833.454 23.12V32H832.362V23.12H833.454ZM839.33 31.1H842.558V32H838.082V31.1L841.274 26.312H838.106V25.424H842.534V26.312L839.33 31.1ZM846.843 32.108C846.227 32.108 845.667 31.968 845.163 31.688C844.667 31.408 844.275 31.012 843.987 30.5C843.707 29.98 843.567 29.38 843.567 28.7C843.567 28.028 843.711 27.436 843.999 26.924C844.295 26.404 844.695 26.008 845.199 25.736C845.703 25.456 846.267 25.316 846.891 25.316C847.515 25.316 848.079 25.456 848.583 25.736C849.087 26.008 849.483 26.4 849.771 26.912C850.067 27.424 850.215 28.02 850.215 28.7C850.215 29.38 850.063 29.98 849.759 30.5C849.463 31.012 849.059 31.408 848.547 31.688C848.035 31.968 847.467 32.108 846.843 32.108ZM846.843 31.148C847.235 31.148 847.603 31.056 847.947 30.872C848.291 30.688 848.567 30.412 848.775 30.044C848.991 29.676 849.099 29.228 849.099 28.7C849.099 28.172 848.995 27.724 848.787 27.356C848.579 26.988 848.307 26.716 847.971 26.54C847.635 26.356 847.271 26.264 846.879 26.264C846.479 26.264 846.111 26.356 845.775 26.54C845.447 26.716 845.183 26.988 844.983 27.356C844.783 27.724 844.683 28.172 844.683 28.7C844.683 29.236 844.779 29.688 844.971 30.056C845.171 30.424 845.435 30.7 845.763 30.884C846.091 31.06 846.451 31.148 846.843 31.148ZM854.855 25.304C855.655 25.304 856.303 25.548 856.799 26.036C857.295 26.516 857.543 27.212 857.543 28.124V32H856.463V28.28C856.463 27.624 856.299 27.124 855.971 26.78C855.643 26.428 855.195 26.252 854.627 26.252C854.051 26.252 853.591 26.432 853.247 26.792C852.911 27.152 852.743 27.676 852.743 28.364V32H851.651V25.424H852.743V26.36C852.959 26.024 853.251 25.764 853.619 25.58C853.995 25.396 854.407 25.304 854.855 25.304ZM865.326 28.46C865.326 28.668 865.314 28.888 865.29 29.12H860.034C860.074 29.768 860.294 30.276 860.694 30.644C861.102 31.004 861.594 31.184 862.17 31.184C862.642 31.184 863.034 31.076 863.346 30.86C863.666 30.636 863.89 30.34 864.018 29.972H865.194C865.018 30.604 864.666 31.12 864.138 31.52C863.61 31.912 862.954 32.108 862.17 32.108C861.546 32.108 860.986 31.968 860.49 31.688C860.002 31.408 859.618 31.012 859.338 30.5C859.058 29.98 858.918 29.38 858.918 28.7C858.918 28.02 859.054 27.424 859.326 26.912C859.598 26.4 859.978 26.008 860.466 25.736C860.962 25.456 861.53 25.316 862.17 25.316C862.794 25.316 863.346 25.452 863.826 25.724C864.306 25.996 864.674 26.372 864.93 26.852C865.194 27.324 865.326 27.86 865.326 28.46ZM864.198 28.232C864.198 27.816 864.106 27.46 863.922 27.164C863.738 26.86 863.486 26.632 863.166 26.48C862.854 26.32 862.506 26.24 862.122 26.24C861.57 26.24 861.098 26.416 860.706 26.768C860.322 27.12 860.102 27.608 860.046 28.232H864.198ZM869.655 31.124C870.671 30.308 871.467 29.64 872.043 29.12C872.619 28.592 873.103 28.044 873.495 27.476C873.895 26.9 874.095 26.336 874.095 25.784C874.095 25.264 873.967 24.856 873.711 24.56C873.463 24.256 873.059 24.104 872.499 24.104C871.955 24.104 871.531 24.276 871.227 24.62C870.931 24.956 870.771 25.408 870.747 25.976H869.691C869.723 25.08 869.995 24.388 870.507 23.9C871.019 23.412 871.679 23.168 872.487 23.168C873.311 23.168 873.963 23.396 874.443 23.852C874.931 24.308 875.175 24.936 875.175 25.736C875.175 26.4 874.975 27.048 874.575 27.68C874.183 28.304 873.735 28.856 873.231 29.336C872.727 29.808 872.083 30.36 871.299 30.992H875.427V31.904H869.655V31.124Z" fill="#29C5F6"/>
<path d="M819.112 161.692C819.416 161.74 819.692 161.864 819.94 162.064C820.196 162.264 820.396 162.512 820.54 162.808C820.692 163.104 820.768 163.42 820.768 163.756C820.768 164.18 820.66 164.564 820.444 164.908C820.228 165.244 819.912 165.512 819.496 165.712C819.088 165.904 818.604 166 818.044 166H814.924V157.636H817.924C818.492 157.636 818.976 157.732 819.376 157.924C819.776 158.108 820.076 158.36 820.276 158.68C820.476 159 820.576 159.36 820.576 159.76C820.576 160.256 820.44 160.668 820.168 160.996C819.904 161.316 819.552 161.548 819.112 161.692ZM816.016 161.248H817.852C818.364 161.248 818.76 161.128 819.04 160.888C819.32 160.648 819.46 160.316 819.46 159.892C819.46 159.468 819.32 159.136 819.04 158.896C818.76 158.656 818.356 158.536 817.828 158.536H816.016V161.248ZM817.948 165.1C818.492 165.1 818.916 164.972 819.22 164.716C819.524 164.46 819.676 164.104 819.676 163.648C819.676 163.184 819.516 162.82 819.196 162.556C818.876 162.284 818.448 162.148 817.912 162.148H816.016V165.1H817.948ZM828.115 159.424V166H827.023V165.028C826.815 165.364 826.523 165.628 826.147 165.82C825.779 166.004 825.371 166.096 824.923 166.096C824.411 166.096 823.951 165.992 823.543 165.784C823.135 165.568 822.811 165.248 822.571 164.824C822.339 164.4 822.223 163.884 822.223 163.276V159.424H823.303V163.132C823.303 163.78 823.467 164.28 823.795 164.632C824.123 164.976 824.571 165.148 825.139 165.148C825.723 165.148 826.183 164.968 826.519 164.608C826.855 164.248 827.023 163.724 827.023 163.036V159.424H828.115ZM835.623 159.424L831.663 169.096H830.535L831.831 165.928L829.179 159.424H830.391L832.455 164.752L834.495 159.424H835.623ZM840.736 165.1H843.964V166H839.488V165.1L842.68 160.312H839.512V159.424H843.94V160.312L840.736 165.1ZM848.249 166.108C847.633 166.108 847.073 165.968 846.569 165.688C846.073 165.408 845.681 165.012 845.393 164.5C845.113 163.98 844.973 163.38 844.973 162.7C844.973 162.028 845.117 161.436 845.405 160.924C845.701 160.404 846.101 160.008 846.605 159.736C847.109 159.456 847.673 159.316 848.297 159.316C848.921 159.316 849.485 159.456 849.989 159.736C850.493 160.008 850.889 160.4 851.177 160.912C851.473 161.424 851.621 162.02 851.621 162.7C851.621 163.38 851.469 163.98 851.165 164.5C850.869 165.012 850.465 165.408 849.953 165.688C849.441 165.968 848.873 166.108 848.249 166.108ZM848.249 165.148C848.641 165.148 849.009 165.056 849.353 164.872C849.697 164.688 849.973 164.412 850.181 164.044C850.397 163.676 850.505 163.228 850.505 162.7C850.505 162.172 850.401 161.724 850.193 161.356C849.985 160.988 849.713 160.716 849.377 160.54C849.041 160.356 848.677 160.264 848.285 160.264C847.885 160.264 847.517 160.356 847.181 160.54C846.853 160.716 846.589 160.988 846.389 161.356C846.189 161.724 846.089 162.172 846.089 162.7C846.089 163.236 846.185 163.688 846.377 164.056C846.577 164.424 846.841 164.7 847.169 164.884C847.497 165.06 847.857 165.148 848.249 165.148ZM856.261 159.304C857.061 159.304 857.709 159.548 858.205 160.036C858.701 160.516 858.949 161.212 858.949 162.124V166H857.869V162.28C857.869 161.624 857.705 161.124 857.377 160.78C857.049 160.428 856.601 160.252 856.033 160.252C855.457 160.252 854.997 160.432 854.653 160.792C854.317 161.152 854.149 161.676 854.149 162.364V166H853.057V159.424H854.149V160.36C854.365 160.024 854.657 159.764 855.025 159.58C855.401 159.396 855.813 159.304 856.261 159.304ZM866.733 162.46C866.733 162.668 866.721 162.888 866.697 163.12H861.441C861.481 163.768 861.701 164.276 862.101 164.644C862.509 165.004 863.001 165.184 863.577 165.184C864.049 165.184 864.441 165.076 864.753 164.86C865.073 164.636 865.297 164.34 865.425 163.972H866.601C866.425 164.604 866.073 165.12 865.545 165.52C865.017 165.912 864.361 166.108 863.577 166.108C862.953 166.108 862.393 165.968 861.897 165.688C861.409 165.408 861.025 165.012 860.745 164.5C860.465 163.98 860.325 163.38 860.325 162.7C860.325 162.02 860.461 161.424 860.733 160.912C861.005 160.4 861.385 160.008 861.873 159.736C862.369 159.456 862.937 159.316 863.577 159.316C864.201 159.316 864.753 159.452 865.233 159.724C865.713 159.996 866.081 160.372 866.337 160.852C866.601 161.324 866.733 161.86 866.733 162.46ZM865.605 162.232C865.605 161.816 865.513 161.46 865.329 161.164C865.145 160.86 864.893 160.632 864.573 160.48C864.261 160.32 863.913 160.24 863.529 160.24C862.977 160.24 862.505 160.416 862.113 160.768C861.729 161.12 861.509 161.608 861.453 162.232H865.605ZM870.905 158.32V157.324H873.161V166H872.057V158.32H870.905Z" fill="#29C5F6"/>
<path d="M817.576 72.084C817.024 72.084 816.528 71.988 816.088 71.796C815.656 71.596 815.316 71.324 815.068 70.98C814.82 70.628 814.692 70.224 814.684 69.768H815.848C815.888 70.16 816.048 70.492 816.328 70.764C816.616 71.028 817.032 71.16 817.576 71.16C818.096 71.16 818.504 71.032 818.8 70.776C819.104 70.512 819.256 70.176 819.256 69.768C819.256 69.448 819.168 69.188 818.992 68.988C818.816 68.788 818.596 68.636 818.332 68.532C818.068 68.428 817.712 68.316 817.264 68.196C816.712 68.052 816.268 67.908 815.932 67.764C815.604 67.62 815.32 67.396 815.08 67.092C814.848 66.78 814.732 66.364 814.732 65.844C814.732 65.388 814.848 64.984 815.08 64.632C815.312 64.28 815.636 64.008 816.052 63.816C816.476 63.624 816.96 63.528 817.504 63.528C818.288 63.528 818.928 63.724 819.424 64.116C819.928 64.508 820.212 65.028 820.276 65.676H819.076C819.036 65.356 818.868 65.076 818.572 64.836C818.276 64.588 817.884 64.464 817.396 64.464C816.94 64.464 816.568 64.584 816.28 64.824C815.992 65.056 815.848 65.384 815.848 65.808C815.848 66.112 815.932 66.36 816.1 66.552C816.276 66.744 816.488 66.892 816.736 66.996C816.992 67.092 817.348 67.204 817.804 67.332C818.356 67.484 818.8 67.636 819.136 67.788C819.472 67.932 819.76 68.16 820 68.472C820.24 68.776 820.36 69.192 820.36 69.72C820.36 70.128 820.252 70.512 820.036 70.872C819.82 71.232 819.5 71.524 819.076 71.748C818.652 71.972 818.152 72.084 817.576 72.084ZM827.967 68.46C827.967 68.668 827.955 68.888 827.931 69.12H822.675C822.715 69.768 822.935 70.276 823.335 70.644C823.743 71.004 824.235 71.184 824.811 71.184C825.283 71.184 825.675 71.076 825.987 70.86C826.307 70.636 826.531 70.34 826.659 69.972H827.835C827.659 70.604 827.307 71.12 826.779 71.52C826.251 71.912 825.595 72.108 824.811 72.108C824.187 72.108 823.627 71.968 823.131 71.688C822.643 71.408 822.259 71.012 821.979 70.5C821.699 69.98 821.559 69.38 821.559 68.7C821.559 68.02 821.695 67.424 821.967 66.912C822.239 66.4 822.619 66.008 823.107 65.736C823.603 65.456 824.171 65.316 824.811 65.316C825.435 65.316 825.987 65.452 826.467 65.724C826.947 65.996 827.315 66.372 827.571 66.852C827.835 67.324 827.967 67.86 827.967 68.46ZM826.839 68.232C826.839 67.816 826.747 67.46 826.563 67.164C826.379 66.86 826.127 66.632 825.807 66.48C825.495 66.32 825.147 66.24 824.763 66.24C824.211 66.24 823.739 66.416 823.347 66.768C822.963 67.12 822.743 67.608 822.687 68.232H826.839ZM830.5 63.12V72H829.408V63.12H830.5ZM833.454 63.12V72H832.362V63.12H833.454ZM839.33 71.1H842.558V72H838.082V71.1L841.274 66.312H838.106V65.424H842.534V66.312L839.33 71.1ZM846.843 72.108C846.227 72.108 845.667 71.968 845.163 71.688C844.667 71.408 844.275 71.012 843.987 70.5C843.707 69.98 843.567 69.38 843.567 68.7C843.567 68.028 843.711 67.436 843.999 66.924C844.295 66.404 844.695 66.008 845.199 65.736C845.703 65.456 846.267 65.316 846.891 65.316C847.515 65.316 848.079 65.456 848.583 65.736C849.087 66.008 849.483 66.4 849.771 66.912C850.067 67.424 850.215 68.02 850.215 68.7C850.215 69.38 850.063 69.98 849.759 70.5C849.463 71.012 849.059 71.408 848.547 71.688C848.035 71.968 847.467 72.108 846.843 72.108ZM846.843 71.148C847.235 71.148 847.603 71.056 847.947 70.872C848.291 70.688 848.567 70.412 848.775 70.044C848.991 69.676 849.099 69.228 849.099 68.7C849.099 68.172 848.995 67.724 848.787 67.356C848.579 66.988 848.307 66.716 847.971 66.54C847.635 66.356 847.271 66.264 846.879 66.264C846.479 66.264 846.111 66.356 845.775 66.54C845.447 66.716 845.183 66.988 844.983 67.356C844.783 67.724 844.683 68.172 844.683 68.7C844.683 69.236 844.779 69.688 844.971 70.056C845.171 70.424 845.435 70.7 845.763 70.884C846.091 71.06 846.451 71.148 846.843 71.148ZM854.855 65.304C855.655 65.304 856.303 65.548 856.799 66.036C857.295 66.516 857.543 67.212 857.543 68.124V72H856.463V68.28C856.463 67.624 856.299 67.124 855.971 66.78C855.643 66.428 855.195 66.252 854.627 66.252C854.051 66.252 853.591 66.432 853.247 66.792C852.911 67.152 852.743 67.676 852.743 68.364V72H851.651V65.424H852.743V66.36C852.959 66.024 853.251 65.764 853.619 65.58C853.995 65.396 854.407 65.304 854.855 65.304ZM865.326 68.46C865.326 68.668 865.314 68.888 865.29 69.12H860.034C860.074 69.768 860.294 70.276 860.694 70.644C861.102 71.004 861.594 71.184 862.17 71.184C862.642 71.184 863.034 71.076 863.346 70.86C863.666 70.636 863.89 70.34 864.018 69.972H865.194C865.018 70.604 864.666 71.12 864.138 71.52C863.61 71.912 862.954 72.108 862.17 72.108C861.546 72.108 860.986 71.968 860.49 71.688C860.002 71.408 859.618 71.012 859.338 70.5C859.058 69.98 858.918 69.38 858.918 68.7C858.918 68.02 859.054 67.424 859.326 66.912C859.598 66.4 859.978 66.008 860.466 65.736C860.962 65.456 861.53 65.316 862.17 65.316C862.794 65.316 863.346 65.452 863.826 65.724C864.306 65.996 864.674 66.372 864.93 66.852C865.194 67.324 865.326 67.86 865.326 68.46ZM864.198 68.232C864.198 67.816 864.106 67.46 863.922 67.164C863.738 66.86 863.486 66.632 863.166 66.48C862.854 66.32 862.506 66.24 862.122 66.24C861.57 66.24 861.098 66.416 860.706 66.768C860.322 67.12 860.102 67.608 860.046 68.232H864.198ZM869.499 64.32V63.324H871.755V72H870.651V64.32H869.499Z" fill="#29C5F6"/>
<path d="M819.112 203.692C819.416 203.74 819.692 203.864 819.94 204.064C820.196 204.264 820.396 204.512 820.54 204.808C820.692 205.104 820.768 205.42 820.768 205.756C820.768 206.18 820.66 206.564 820.444 206.908C820.228 207.244 819.912 207.512 819.496 207.712C819.088 207.904 818.604 208 818.044 208H814.924V199.636H817.924C818.492 199.636 818.976 199.732 819.376 199.924C819.776 200.108 820.076 200.36 820.276 200.68C820.476 201 820.576 201.36 820.576 201.76C820.576 202.256 820.44 202.668 820.168 202.996C819.904 203.316 819.552 203.548 819.112 203.692ZM816.016 203.248H817.852C818.364 203.248 818.76 203.128 819.04 202.888C819.32 202.648 819.46 202.316 819.46 201.892C819.46 201.468 819.32 201.136 819.04 200.896C818.76 200.656 818.356 200.536 817.828 200.536H816.016V203.248ZM817.948 207.1C818.492 207.1 818.916 206.972 819.22 206.716C819.524 206.46 819.676 206.104 819.676 205.648C819.676 205.184 819.516 204.82 819.196 204.556C818.876 204.284 818.448 204.148 817.912 204.148H816.016V207.1H817.948ZM828.115 201.424V208H827.023V207.028C826.815 207.364 826.523 207.628 826.147 207.82C825.779 208.004 825.371 208.096 824.923 208.096C824.411 208.096 823.951 207.992 823.543 207.784C823.135 207.568 822.811 207.248 822.571 206.824C822.339 206.4 822.223 205.884 822.223 205.276V201.424H823.303V205.132C823.303 205.78 823.467 206.28 823.795 206.632C824.123 206.976 824.571 207.148 825.139 207.148C825.723 207.148 826.183 206.968 826.519 206.608C826.855 206.248 827.023 205.724 827.023 205.036V201.424H828.115ZM835.623 201.424L831.663 211.096H830.535L831.831 207.928L829.179 201.424H830.391L832.455 206.752L834.495 201.424H835.623ZM840.736 207.1H843.964V208H839.488V207.1L842.68 202.312H839.512V201.424H843.94V202.312L840.736 207.1ZM848.249 208.108C847.633 208.108 847.073 207.968 846.569 207.688C846.073 207.408 845.681 207.012 845.393 206.5C845.113 205.98 844.973 205.38 844.973 204.7C844.973 204.028 845.117 203.436 845.405 202.924C845.701 202.404 846.101 202.008 846.605 201.736C847.109 201.456 847.673 201.316 848.297 201.316C848.921 201.316 849.485 201.456 849.989 201.736C850.493 202.008 850.889 202.4 851.177 202.912C851.473 203.424 851.621 204.02 851.621 204.7C851.621 205.38 851.469 205.98 851.165 206.5C850.869 207.012 850.465 207.408 849.953 207.688C849.441 207.968 848.873 208.108 848.249 208.108ZM848.249 207.148C848.641 207.148 849.009 207.056 849.353 206.872C849.697 206.688 849.973 206.412 850.181 206.044C850.397 205.676 850.505 205.228 850.505 204.7C850.505 204.172 850.401 203.724 850.193 203.356C849.985 202.988 849.713 202.716 849.377 202.54C849.041 202.356 848.677 202.264 848.285 202.264C847.885 202.264 847.517 202.356 847.181 202.54C846.853 202.716 846.589 202.988 846.389 203.356C846.189 203.724 846.089 204.172 846.089 204.7C846.089 205.236 846.185 205.688 846.377 206.056C846.577 206.424 846.841 206.7 847.169 206.884C847.497 207.06 847.857 207.148 848.249 207.148ZM856.261 201.304C857.061 201.304 857.709 201.548 858.205 202.036C858.701 202.516 858.949 203.212 858.949 204.124V208H857.869V204.28C857.869 203.624 857.705 203.124 857.377 202.78C857.049 202.428 856.601 202.252 856.033 202.252C855.457 202.252 854.997 202.432 854.653 202.792C854.317 203.152 854.149 203.676 854.149 204.364V208H853.057V201.424H854.149V202.36C854.365 202.024 854.657 201.764 855.025 201.58C855.401 201.396 855.813 201.304 856.261 201.304ZM866.733 204.46C866.733 204.668 866.721 204.888 866.697 205.12H861.441C861.481 205.768 861.701 206.276 862.101 206.644C862.509 207.004 863.001 207.184 863.577 207.184C864.049 207.184 864.441 207.076 864.753 206.86C865.073 206.636 865.297 206.34 865.425 205.972H866.601C866.425 206.604 866.073 207.12 865.545 207.52C865.017 207.912 864.361 208.108 863.577 208.108C862.953 208.108 862.393 207.968 861.897 207.688C861.409 207.408 861.025 207.012 860.745 206.5C860.465 205.98 860.325 205.38 860.325 204.7C860.325 204.02 860.461 203.424 860.733 202.912C861.005 202.4 861.385 202.008 861.873 201.736C862.369 201.456 862.937 201.316 863.577 201.316C864.201 201.316 864.753 201.452 865.233 201.724C865.713 201.996 866.081 202.372 866.337 202.852C866.601 203.324 866.733 203.86 866.733 204.46ZM865.605 204.232C865.605 203.816 865.513 203.46 865.329 203.164C865.145 202.86 864.893 202.632 864.573 202.48C864.261 202.32 863.913 202.24 863.529 202.24C862.977 202.24 862.505 202.416 862.113 202.768C861.729 203.12 861.509 203.608 861.453 204.232H865.605ZM871.061 207.124C872.077 206.308 872.873 205.64 873.449 205.12C874.025 204.592 874.509 204.044 874.901 203.476C875.301 202.9 875.501 202.336 875.501 201.784C875.501 201.264 875.373 200.856 875.117 200.56C874.869 200.256 874.465 200.104 873.905 200.104C873.361 200.104 872.937 200.276 872.633 200.62C872.337 200.956 872.177 201.408 872.153 201.976H871.097C871.129 201.08 871.401 200.388 871.913 199.9C872.425 199.412 873.085 199.168 873.893 199.168C874.717 199.168 875.369 199.396 875.849 199.852C876.337 200.308 876.581 200.936 876.581 201.736C876.581 202.4 876.381 203.048 875.981 203.68C875.589 204.304 875.141 204.856 874.637 205.336C874.133 205.808 873.489 206.36 872.705 206.992H876.833V207.904H871.061V207.124Z" fill="#29C5F6"/>
<path d="M819.652 95.636V96.524H816.016V99.344H818.968V100.232H816.016V104H814.924V95.636H819.652ZM820.563 100.688C820.563 100.016 820.699 99.428 820.971 98.924C821.243 98.412 821.615 98.016 822.087 97.736C822.567 97.456 823.099 97.316 823.683 97.316C824.259 97.316 824.759 97.44 825.183 97.688C825.607 97.936 825.923 98.248 826.131 98.624V97.424H827.235V104H826.131V102.776C825.915 103.16 825.591 103.48 825.159 103.736C824.735 103.984 824.239 104.108 823.671 104.108C823.087 104.108 822.559 103.964 822.087 103.676C821.615 103.388 821.243 102.984 820.971 102.464C820.699 101.944 820.563 101.352 820.563 100.688ZM826.131 100.7C826.131 100.204 826.031 99.772 825.831 99.404C825.631 99.036 825.359 98.756 825.015 98.564C824.679 98.364 824.307 98.264 823.899 98.264C823.491 98.264 823.119 98.36 822.783 98.552C822.447 98.744 822.179 99.024 821.979 99.392C821.779 99.76 821.679 100.192 821.679 100.688C821.679 101.192 821.779 101.632 821.979 102.008C822.179 102.376 822.447 102.66 822.783 102.86C823.119 103.052 823.491 103.148 823.899 103.148C824.307 103.148 824.679 103.052 825.015 102.86C825.359 102.66 825.631 102.376 825.831 102.008C826.031 101.632 826.131 101.196 826.131 100.7ZM829.644 96.356C829.436 96.356 829.26 96.284 829.116 96.14C828.972 95.996 828.9 95.82 828.9 95.612C828.9 95.404 828.972 95.228 829.116 95.084C829.26 94.94 829.436 94.868 829.644 94.868C829.844 94.868 830.012 94.94 830.148 95.084C830.292 95.228 830.364 95.404 830.364 95.612C830.364 95.82 830.292 95.996 830.148 96.14C830.012 96.284 829.844 96.356 829.644 96.356ZM830.172 97.424V104H829.08V97.424H830.172ZM833.125 98.492C833.317 98.116 833.589 97.824 833.941 97.616C834.301 97.408 834.737 97.304 835.249 97.304V98.432H834.961C833.737 98.432 833.125 99.096 833.125 100.424V104H832.033V97.424H833.125V98.492ZM840.525 103.1H843.753V104H839.277V103.1L842.469 98.312H839.301V97.424H843.729V98.312L840.525 103.1ZM848.038 104.108C847.422 104.108 846.862 103.968 846.358 103.688C845.862 103.408 845.47 103.012 845.182 102.5C844.902 101.98 844.762 101.38 844.762 100.7C844.762 100.028 844.906 99.436 845.194 98.924C845.49 98.404 845.89 98.008 846.394 97.736C846.898 97.456 847.462 97.316 848.086 97.316C848.71 97.316 849.274 97.456 849.778 97.736C850.282 98.008 850.678 98.4 850.966 98.912C851.262 99.424 851.41 100.02 851.41 100.7C851.41 101.38 851.258 101.98 850.954 102.5C850.658 103.012 850.254 103.408 849.742 103.688C849.23 103.968 848.662 104.108 848.038 104.108ZM848.038 103.148C848.43 103.148 848.798 103.056 849.142 102.872C849.486 102.688 849.762 102.412 849.97 102.044C850.186 101.676 850.294 101.228 850.294 100.7C850.294 100.172 850.19 99.724 849.982 99.356C849.774 98.988 849.502 98.716 849.166 98.54C848.83 98.356 848.466 98.264 848.074 98.264C847.674 98.264 847.306 98.356 846.97 98.54C846.642 98.716 846.378 98.988 846.178 99.356C845.978 99.724 845.878 100.172 845.878 100.7C845.878 101.236 845.974 101.688 846.166 102.056C846.366 102.424 846.63 102.7 846.958 102.884C847.286 103.06 847.646 103.148 848.038 103.148ZM856.05 97.304C856.85 97.304 857.498 97.548 857.994 98.036C858.49 98.516 858.738 99.212 858.738 100.124V104H857.658V100.28C857.658 99.624 857.494 99.124 857.166 98.78C856.838 98.428 856.39 98.252 855.822 98.252C855.246 98.252 854.786 98.432 854.442 98.792C854.106 99.152 853.938 99.676 853.938 100.364V104H852.846V97.424H853.938V98.36C854.154 98.024 854.446 97.764 854.814 97.58C855.19 97.396 855.602 97.304 856.05 97.304ZM866.522 100.46C866.522 100.668 866.51 100.888 866.486 101.12H861.23C861.27 101.768 861.49 102.276 861.89 102.644C862.298 103.004 862.79 103.184 863.366 103.184C863.838 103.184 864.23 103.076 864.542 102.86C864.862 102.636 865.086 102.34 865.214 101.972H866.39C866.214 102.604 865.862 103.12 865.334 103.52C864.806 103.912 864.15 104.108 863.366 104.108C862.742 104.108 862.182 103.968 861.686 103.688C861.198 103.408 860.814 103.012 860.534 102.5C860.254 101.98 860.114 101.38 860.114 100.7C860.114 100.02 860.25 99.424 860.522 98.912C860.794 98.4 861.174 98.008 861.662 97.736C862.158 97.456 862.726 97.316 863.366 97.316C863.99 97.316 864.542 97.452 865.022 97.724C865.502 97.996 865.87 98.372 866.126 98.852C866.39 99.324 866.522 99.86 866.522 100.46ZM865.394 100.232C865.394 99.816 865.302 99.46 865.118 99.164C864.934 98.86 864.682 98.632 864.362 98.48C864.05 98.32 863.702 98.24 863.318 98.24C862.766 98.24 862.294 98.416 861.902 98.768C861.518 99.12 861.298 99.608 861.242 100.232H865.394Z" fill="#29C5F6"/>
<path d="M819.652 127.636V128.524H816.016V131.344H818.968V132.232H816.016V136H814.924V127.636H819.652ZM820.563 132.688C820.563 132.016 820.699 131.428 820.971 130.924C821.243 130.412 821.615 130.016 822.087 129.736C822.567 129.456 823.099 129.316 823.683 129.316C824.259 129.316 824.759 129.44 825.183 129.688C825.607 129.936 825.923 130.248 826.131 130.624V129.424H827.235V136H826.131V134.776C825.915 135.16 825.591 135.48 825.159 135.736C824.735 135.984 824.239 136.108 823.671 136.108C823.087 136.108 822.559 135.964 822.087 135.676C821.615 135.388 821.243 134.984 820.971 134.464C820.699 133.944 820.563 133.352 820.563 132.688ZM826.131 132.7C826.131 132.204 826.031 131.772 825.831 131.404C825.631 131.036 825.359 130.756 825.015 130.564C824.679 130.364 824.307 130.264 823.899 130.264C823.491 130.264 823.119 130.36 822.783 130.552C822.447 130.744 822.179 131.024 821.979 131.392C821.779 131.76 821.679 132.192 821.679 132.688C821.679 133.192 821.779 133.632 821.979 134.008C822.179 134.376 822.447 134.66 822.783 134.86C823.119 135.052 823.491 135.148 823.899 135.148C824.307 135.148 824.679 135.052 825.015 134.86C825.359 134.66 825.631 134.376 825.831 134.008C826.031 133.632 826.131 133.196 826.131 132.7ZM829.644 128.356C829.436 128.356 829.26 128.284 829.116 128.14C828.972 127.996 828.9 127.82 828.9 127.612C828.9 127.404 828.972 127.228 829.116 127.084C829.26 126.94 829.436 126.868 829.644 126.868C829.844 126.868 830.012 126.94 830.148 127.084C830.292 127.228 830.364 127.404 830.364 127.612C830.364 127.82 830.292 127.996 830.148 128.14C830.012 128.284 829.844 128.356 829.644 128.356ZM830.172 129.424V136H829.08V129.424H830.172ZM833.125 130.492C833.317 130.116 833.589 129.824 833.941 129.616C834.301 129.408 834.737 129.304 835.249 129.304V130.432H834.961C833.737 130.432 833.125 131.096 833.125 132.424V136H832.033V129.424H833.125V130.492ZM840.525 135.1H843.753V136H839.277V135.1L842.469 130.312H839.301V129.424H843.729V130.312L840.525 135.1ZM848.038 136.108C847.422 136.108 846.862 135.968 846.358 135.688C845.862 135.408 845.47 135.012 845.182 134.5C844.902 133.98 844.762 133.38 844.762 132.7C844.762 132.028 844.906 131.436 845.194 130.924C845.49 130.404 845.89 130.008 846.394 129.736C846.898 129.456 847.462 129.316 848.086 129.316C848.71 129.316 849.274 129.456 849.778 129.736C850.282 130.008 850.678 130.4 850.966 130.912C851.262 131.424 851.41 132.02 851.41 132.7C851.41 133.38 851.258 133.98 850.954 134.5C850.658 135.012 850.254 135.408 849.742 135.688C849.23 135.968 848.662 136.108 848.038 136.108ZM848.038 135.148C848.43 135.148 848.798 135.056 849.142 134.872C849.486 134.688 849.762 134.412 849.97 134.044C850.186 133.676 850.294 133.228 850.294 132.7C850.294 132.172 850.19 131.724 849.982 131.356C849.774 130.988 849.502 130.716 849.166 130.54C848.83 130.356 848.466 130.264 848.074 130.264C847.674 130.264 847.306 130.356 846.97 130.54C846.642 130.716 846.378 130.988 846.178 131.356C845.978 131.724 845.878 132.172 845.878 132.7C845.878 133.236 845.974 133.688 846.166 134.056C846.366 134.424 846.63 134.7 846.958 134.884C847.286 135.06 847.646 135.148 848.038 135.148ZM856.05 129.304C856.85 129.304 857.498 129.548 857.994 130.036C858.49 130.516 858.738 131.212 858.738 132.124V136H857.658V132.28C857.658 131.624 857.494 131.124 857.166 130.78C856.838 130.428 856.39 130.252 855.822 130.252C855.246 130.252 854.786 130.432 854.442 130.792C854.106 131.152 853.938 131.676 853.938 132.364V136H852.846V129.424H853.938V130.36C854.154 130.024 854.446 129.764 854.814 129.58C855.19 129.396 855.602 129.304 856.05 129.304ZM866.522 132.46C866.522 132.668 866.51 132.888 866.486 133.12H861.23C861.27 133.768 861.49 134.276 861.89 134.644C862.298 135.004 862.79 135.184 863.366 135.184C863.838 135.184 864.23 135.076 864.542 134.86C864.862 134.636 865.086 134.34 865.214 133.972H866.39C866.214 134.604 865.862 135.12 865.334 135.52C864.806 135.912 864.15 136.108 863.366 136.108C862.742 136.108 862.182 135.968 861.686 135.688C861.198 135.408 860.814 135.012 860.534 134.5C860.254 133.98 860.114 133.38 860.114 132.7C860.114 132.02 860.25 131.424 860.522 130.912C860.794 130.4 861.174 130.008 861.662 129.736C862.158 129.456 862.726 129.316 863.366 129.316C863.99 129.316 864.542 129.452 865.022 129.724C865.502 129.996 865.87 130.372 866.126 130.852C866.39 131.324 866.522 131.86 866.522 132.46ZM865.394 132.232C865.394 131.816 865.302 131.46 865.118 131.164C864.934 130.86 864.682 130.632 864.362 130.48C864.05 130.32 863.702 130.24 863.318 130.24C862.766 130.24 862.294 130.416 861.902 130.768C861.518 131.12 861.298 131.608 861.242 132.232H865.394Z" fill="#29C5F6"/>
<path d="M278.868 338.14H275.22L274.548 340H273.396L276.42 331.684H277.68L280.692 340H279.54L278.868 338.14ZM278.556 337.252L277.044 333.028L275.532 337.252H278.556ZM287.842 333.424V340H286.75V339.028C286.542 339.364 286.25 339.628 285.874 339.82C285.506 340.004 285.098 340.096 284.65 340.096C284.138 340.096 283.678 339.992 283.27 339.784C282.862 339.568 282.538 339.248 282.298 338.824C282.066 338.4 281.95 337.884 281.95 337.276V333.424H283.03V337.132C283.03 337.78 283.194 338.28 283.522 338.632C283.85 338.976 284.298 339.148 284.866 339.148C285.45 339.148 285.91 338.968 286.246 338.608C286.582 338.248 286.75 337.724 286.75 337.036V333.424H287.842ZM291.018 334.324V338.2C291.018 338.52 291.086 338.748 291.222 338.884C291.358 339.012 291.594 339.076 291.93 339.076H292.734V340H291.75C291.142 340 290.686 339.86 290.382 339.58C290.078 339.3 289.926 338.84 289.926 338.2V334.324H289.074V333.424H289.926V331.768H291.018V333.424H292.734V334.324H291.018ZM296.925 340.108C296.309 340.108 295.749 339.968 295.245 339.688C294.749 339.408 294.357 339.012 294.069 338.5C293.789 337.98 293.649 337.38 293.649 336.7C293.649 336.028 293.793 335.436 294.081 334.924C294.377 334.404 294.777 334.008 295.281 333.736C295.785 333.456 296.349 333.316 296.973 333.316C297.597 333.316 298.161 333.456 298.665 333.736C299.169 334.008 299.565 334.4 299.853 334.912C300.149 335.424 300.297 336.02 300.297 336.7C300.297 337.38 300.145 337.98 299.841 338.5C299.545 339.012 299.141 339.408 298.629 339.688C298.117 339.968 297.549 340.108 296.925 340.108ZM296.925 339.148C297.317 339.148 297.685 339.056 298.029 338.872C298.373 338.688 298.649 338.412 298.857 338.044C299.073 337.676 299.181 337.228 299.181 336.7C299.181 336.172 299.077 335.724 298.869 335.356C298.661 334.988 298.389 334.716 298.053 334.54C297.717 334.356 297.353 334.264 296.961 334.264C296.561 334.264 296.193 334.356 295.857 334.54C295.529 334.716 295.265 334.988 295.065 335.356C294.865 335.724 294.765 336.172 294.765 336.7C294.765 337.236 294.861 337.688 295.053 338.056C295.253 338.424 295.517 338.7 295.845 338.884C296.173 339.06 296.533 339.148 296.925 339.148ZM309.641 333.304C310.153 333.304 310.609 333.412 311.009 333.628C311.409 333.836 311.725 334.152 311.957 334.576C312.189 335 312.305 335.516 312.305 336.124V340H311.225V336.28C311.225 335.624 311.061 335.124 310.733 334.78C310.413 334.428 309.977 334.252 309.425 334.252C308.857 334.252 308.405 334.436 308.069 334.804C307.733 335.164 307.565 335.688 307.565 336.376V340H306.485V336.28C306.485 335.624 306.321 335.124 305.993 334.78C305.673 334.428 305.237 334.252 304.685 334.252C304.117 334.252 303.665 334.436 303.329 334.804C302.993 335.164 302.825 335.688 302.825 336.376V340H301.733V333.424H302.825V334.372C303.041 334.028 303.329 333.764 303.689 333.58C304.057 333.396 304.461 333.304 304.901 333.304C305.453 333.304 305.941 333.428 306.365 333.676C306.789 333.924 307.105 334.288 307.313 334.768C307.497 334.304 307.801 333.944 308.225 333.688C308.649 333.432 309.121 333.304 309.641 333.304ZM313.688 336.688C313.688 336.016 313.824 335.428 314.096 334.924C314.368 334.412 314.74 334.016 315.212 333.736C315.692 333.456 316.224 333.316 316.808 333.316C317.384 333.316 317.884 333.44 318.308 333.688C318.732 333.936 319.048 334.248 319.256 334.624V333.424H320.36V340H319.256V338.776C319.04 339.16 318.716 339.48 318.284 339.736C317.86 339.984 317.364 340.108 316.796 340.108C316.212 340.108 315.684 339.964 315.212 339.676C314.74 339.388 314.368 338.984 314.096 338.464C313.824 337.944 313.688 337.352 313.688 336.688ZM319.256 336.7C319.256 336.204 319.156 335.772 318.956 335.404C318.756 335.036 318.484 334.756 318.14 334.564C317.804 334.364 317.432 334.264 317.024 334.264C316.616 334.264 316.244 334.36 315.908 334.552C315.572 334.744 315.304 335.024 315.104 335.392C314.904 335.76 314.804 336.192 314.804 336.688C314.804 337.192 314.904 337.632 315.104 338.008C315.304 338.376 315.572 338.66 315.908 338.86C316.244 339.052 316.616 339.148 317.024 339.148C317.432 339.148 317.804 339.052 318.14 338.86C318.484 338.66 318.756 338.376 318.956 338.008C319.156 337.632 319.256 337.196 319.256 336.7ZM323.537 334.324V338.2C323.537 338.52 323.605 338.748 323.741 338.884C323.877 339.012 324.113 339.076 324.449 339.076H325.253V340H324.269C323.661 340 323.205 339.86 322.901 339.58C322.597 339.3 322.445 338.84 322.445 338.2V334.324H321.593V333.424H322.445V331.768H323.537V333.424H325.253V334.324H323.537ZM327.14 332.356C326.932 332.356 326.756 332.284 326.612 332.14C326.468 331.996 326.396 331.82 326.396 331.612C326.396 331.404 326.468 331.228 326.612 331.084C326.756 330.94 326.932 330.868 327.14 330.868C327.34 330.868 327.508 330.94 327.644 331.084C327.788 331.228 327.86 331.404 327.86 331.612C327.86 331.82 327.788 331.996 327.644 332.14C327.508 332.284 327.34 332.356 327.14 332.356ZM327.668 333.424V340H326.576V333.424H327.668ZM329.121 336.7C329.121 336.02 329.257 335.428 329.529 334.924C329.801 334.412 330.177 334.016 330.657 333.736C331.145 333.456 331.701 333.316 332.325 333.316C333.133 333.316 333.797 333.512 334.317 333.904C334.845 334.296 335.193 334.84 335.361 335.536H334.185C334.073 335.136 333.853 334.82 333.525 334.588C333.205 334.356 332.805 334.24 332.325 334.24C331.701 334.24 331.197 334.456 330.813 334.888C330.429 335.312 330.237 335.916 330.237 336.7C330.237 337.492 330.429 338.104 330.813 338.536C331.197 338.968 331.701 339.184 332.325 339.184C332.805 339.184 333.205 339.072 333.525 338.848C333.845 338.624 334.065 338.304 334.185 337.888H335.361C335.185 338.56 334.833 339.1 334.305 339.508C333.777 339.908 333.117 340.108 332.325 340.108C331.701 340.108 331.145 339.968 330.657 339.688C330.177 339.408 329.801 339.012 329.529 338.5C329.257 337.988 329.121 337.388 329.121 336.7ZM341.11 334.648C341.334 334.256 341.662 333.936 342.094 333.688C342.526 333.44 343.018 333.316 343.57 333.316C344.162 333.316 344.694 333.456 345.166 333.736C345.638 334.016 346.01 334.412 346.282 334.924C346.554 335.428 346.69 336.016 346.69 336.688C346.69 337.352 346.554 337.944 346.282 338.464C346.01 338.984 345.634 339.388 345.154 339.676C344.682 339.964 344.154 340.108 343.57 340.108C343.002 340.108 342.502 339.984 342.07 339.736C341.646 339.488 341.326 339.172 341.11 338.788V340H340.018V331.12H341.11V334.648ZM345.574 336.688C345.574 336.192 345.474 335.76 345.274 335.392C345.074 335.024 344.802 334.744 344.458 334.552C344.122 334.36 343.75 334.264 343.342 334.264C342.942 334.264 342.57 334.364 342.226 334.564C341.89 334.756 341.618 335.04 341.41 335.416C341.21 335.784 341.11 336.212 341.11 336.7C341.11 337.196 341.21 337.632 341.41 338.008C341.618 338.376 341.89 338.66 342.226 338.86C342.57 339.052 342.942 339.148 343.342 339.148C343.75 339.148 344.122 339.052 344.458 338.86C344.802 338.66 345.074 338.376 345.274 338.008C345.474 337.632 345.574 337.192 345.574 336.688ZM353.959 333.424V340H352.867V339.028C352.659 339.364 352.367 339.628 351.991 339.82C351.623 340.004 351.215 340.096 350.767 340.096C350.255 340.096 349.795 339.992 349.387 339.784C348.979 339.568 348.655 339.248 348.415 338.824C348.183 338.4 348.067 337.884 348.067 337.276V333.424H349.147V337.132C349.147 337.78 349.311 338.28 349.639 338.632C349.967 338.976 350.415 339.148 350.983 339.148C351.567 339.148 352.027 338.968 352.363 338.608C352.699 338.248 352.867 337.724 352.867 337.036V333.424H353.959ZM361.467 333.424L357.507 343.096H356.379L357.675 339.928L355.023 333.424H356.235L358.299 338.752L360.339 333.424H361.467ZM363.657 334.648C363.881 334.256 364.209 333.936 364.641 333.688C365.073 333.44 365.565 333.316 366.117 333.316C366.709 333.316 367.241 333.456 367.713 333.736C368.185 334.016 368.557 334.412 368.829 334.924C369.101 335.428 369.237 336.016 369.237 336.688C369.237 337.352 369.101 337.944 368.829 338.464C368.557 338.984 368.181 339.388 367.701 339.676C367.229 339.964 366.701 340.108 366.117 340.108C365.549 340.108 365.049 339.984 364.617 339.736C364.193 339.488 363.873 339.172 363.657 338.788V340H362.565V331.12H363.657V334.648ZM368.121 336.688C368.121 336.192 368.021 335.76 367.821 335.392C367.621 335.024 367.349 334.744 367.005 334.552C366.669 334.36 366.297 334.264 365.889 334.264C365.489 334.264 365.117 334.364 364.773 334.564C364.437 334.756 364.165 335.04 363.957 335.416C363.757 335.784 363.657 336.212 363.657 336.7C363.657 337.196 363.757 337.632 363.957 338.008C364.165 338.376 364.437 338.66 364.773 338.86C365.117 339.052 365.489 339.148 365.889 339.148C366.297 339.148 366.669 339.052 367.005 338.86C367.349 338.66 367.621 338.376 367.821 338.008C368.021 337.632 368.121 337.192 368.121 336.688ZM370.266 336.688C370.266 336.016 370.402 335.428 370.674 334.924C370.946 334.412 371.318 334.016 371.79 333.736C372.27 333.456 372.802 333.316 373.386 333.316C373.962 333.316 374.462 333.44 374.886 333.688C375.31 333.936 375.626 334.248 375.834 334.624V333.424H376.938V340H375.834V338.776C375.618 339.16 375.294 339.48 374.862 339.736C374.438 339.984 373.942 340.108 373.374 340.108C372.79 340.108 372.262 339.964 371.79 339.676C371.318 339.388 370.946 338.984 370.674 338.464C370.402 337.944 370.266 337.352 370.266 336.688ZM375.834 336.7C375.834 336.204 375.734 335.772 375.534 335.404C375.334 335.036 375.062 334.756 374.718 334.564C374.382 334.364 374.01 334.264 373.602 334.264C373.194 334.264 372.822 334.36 372.486 334.552C372.15 334.744 371.882 335.024 371.682 335.392C371.482 335.76 371.382 336.192 371.382 336.688C371.382 337.192 371.482 337.632 371.682 338.008C371.882 338.376 372.15 338.66 372.486 338.86C372.822 339.052 373.194 339.148 373.602 339.148C374.01 339.148 374.382 339.052 374.718 338.86C375.062 338.66 375.334 338.376 375.534 338.008C375.734 337.632 375.834 337.196 375.834 336.7ZM378.375 336.7C378.375 336.02 378.511 335.428 378.783 334.924C379.055 334.412 379.431 334.016 379.911 333.736C380.399 333.456 380.955 333.316 381.579 333.316C382.387 333.316 383.051 333.512 383.571 333.904C384.099 334.296 384.447 334.84 384.615 335.536H383.439C383.327 335.136 383.107 334.82 382.779 334.588C382.459 334.356 382.059 334.24 381.579 334.24C380.955 334.24 380.451 334.456 380.067 334.888C379.683 335.312 379.491 335.916 379.491 336.7C379.491 337.492 379.683 338.104 380.067 338.536C380.451 338.968 380.955 339.184 381.579 339.184C382.059 339.184 382.459 339.072 382.779 338.848C383.099 338.624 383.319 338.304 383.439 337.888H384.615C384.439 338.56 384.087 339.1 383.559 339.508C383.031 339.908 382.371 340.108 381.579 340.108C380.955 340.108 380.399 339.968 379.911 339.688C379.431 339.408 379.055 339.012 378.783 338.5C378.511 337.988 378.375 337.388 378.375 336.7ZM389.744 340L387.164 337.096V340H386.072V331.12H387.164V336.34L389.696 333.424H391.22L388.124 336.7L391.232 340H389.744ZM394.576 340.108C394.072 340.108 393.62 340.024 393.22 339.856C392.82 339.68 392.504 339.44 392.272 339.136C392.04 338.824 391.912 338.468 391.888 338.068H393.016C393.048 338.396 393.2 338.664 393.472 338.872C393.752 339.08 394.116 339.184 394.564 339.184C394.98 339.184 395.308 339.092 395.548 338.908C395.788 338.724 395.908 338.492 395.908 338.212C395.908 337.924 395.78 337.712 395.524 337.576C395.268 337.432 394.872 337.292 394.336 337.156C393.848 337.028 393.448 336.9 393.136 336.772C392.832 336.636 392.568 336.44 392.344 336.184C392.128 335.92 392.02 335.576 392.02 335.152C392.02 334.816 392.12 334.508 392.32 334.228C392.52 333.948 392.804 333.728 393.172 333.568C393.54 333.4 393.96 333.316 394.432 333.316C395.16 333.316 395.748 333.5 396.196 333.868C396.644 334.236 396.884 334.74 396.916 335.38H395.824C395.8 335.036 395.66 334.76 395.404 334.552C395.156 334.344 394.82 334.24 394.396 334.24C394.004 334.24 393.692 334.324 393.46 334.492C393.228 334.66 393.112 334.88 393.112 335.152C393.112 335.368 393.18 335.548 393.316 335.692C393.46 335.828 393.636 335.94 393.844 336.028C394.06 336.108 394.356 336.2 394.732 336.304C395.204 336.432 395.588 336.56 395.884 336.688C396.18 336.808 396.432 336.992 396.64 337.24C396.856 337.488 396.968 337.812 396.976 338.212C396.976 338.572 396.876 338.896 396.676 339.184C396.476 339.472 396.192 339.7 395.824 339.868C395.464 340.028 395.048 340.108 394.576 340.108Z" fill="white"/>
<path d="M21 0L15.2265 10L26.7735 10L21 0ZM22 387L22 9L20 9L20 387L22 387Z" fill="#29C5F6"/>
<path d="M890 369L880 363.226V374.774L890 369ZM0 370L881 370V368L0 368L0 370Z" fill="#29C5F6"/>
<rect x="31" y="229" width="14" height="67" fill="#29C5F6"/>
<rect x="56" y="229" width="14" height="21" fill="#FF4FD8"/>
<rect x="81" y="220" width="14" height="30" fill="#29C5F6"/>
<rect x="106" y="221" width="15" height="67" fill="#FF4FD8"/>
<rect x="131" y="265" width="14" height="22" fill="#29C5F6"/>
<rect x="156" y="213" width="14" height="52" fill="#29C5F6"/>
<rect x="181" y="179" width="14" height="32" fill="#29C5F6"/>
<rect x="206" y="178" width="14" height="14" fill="#FF4FD8"/>
<rect x="231" y="149" width="14" height="30" fill="#29C5F6"/>
<rect x="256" y="149" width="14" height="67" fill="#FF4FD8"/>
<rect x="281" y="186" width="14" height="30" fill="#29C5F6"/>
<rect x="306" y="164" width="14" height="21" fill="#29C5F6"/>
<rect x="331" y="135" width="14" height="29" fill="#29C5F6"/>
<rect x="356" y="135" width="14" height="21" fill="#FF4FD8"/>
<rect x="381" y="143" width="14" height="14" fill="#29C5F6"/>
<rect x="406" y="123" width="14" height="21" fill="#29C5F6"/>
<rect x="431" y="113" width="14" height="10" fill="#29C5F6"/>
<rect x="456" y="93" width="14" height="21" fill="#29C5F6"/>
<rect x="481" y="92" width="14" height="10" fill="#FF4FD8"/>
<rect x="506" y="103" width="14" height="21" fill="#FF4FD8"/>
<rect x="531" y="107" width="14" height="18" fill="#29C5F6"/>
<rect x="556" y="86" width="14" height="21" fill="#29C5F6"/>
<rect x="581" y="87" width="14" height="21" fill="#FF4FD8"/>
<rect x="606" y="108" width="14" height="21" fill="#FF4FD8"/>
<rect x="631" y="105" width="14" height="21" fill="#29C5F6"/>
<rect x="656" y="105" width="14" height="11" fill="#FF4FD8"/>
<rect x="681" y="96" width="14" height="20" fill="#29C5F6"/>
<rect x="706" y="96" width="14" height="12" fill="#FF4FD8"/>
<rect x="731" y="108" width="14" height="11" fill="#FF4FD8"/>
<rect x="756" y="118" width="14" height="18" fill="#FF4FD8"/>
<rect x="781" y="81" width="14" height="54" fill="#29C5F6"/>
<line x1="88" y1="256" x2="88" y2="214" stroke="#29C5F6" stroke-width="2"/>
<line x1="163" y1="275" x2="163" y2="201" stroke="#29C5F6" stroke-width="2"/>
<line x1="138" y1="342" x2="138" y2="268" stroke="#29C5F6" stroke-width="2"/>
<line x1="238" y1="184" x2="238" y2="143" stroke="#29C5F6" stroke-width="2"/>
<line x1="288" y1="222" x2="288" y2="181" stroke="#29C5F6" stroke-width="2"/>
<line x1="114" y1="268" x2="114" y2="194" stroke="#FF4FD8" stroke-width="2"/>
<line x1="213" y1="234" x2="213" y2="184" stroke="#FF4FD8" stroke-width="2"/>
<line x1="263" y1="229" x2="263" y2="136" stroke="#FF4FD8" stroke-width="2"/>
<line x1="338" y1="169" x2="338" y2="129" stroke="#29C5F6" stroke-width="2"/>
<line x1="388" y1="197" x2="388" y2="150" stroke="#29C5F6" stroke-width="2"/>
<line x1="413" y1="149" x2="413" y2="120" stroke="#29C5F6" stroke-width="2"/>
<line x1="438" y1="117" x2="438" y2="88" stroke="#29C5F6" stroke-width="2"/>
<line x1="513" y1="115" x2="513" y2="31" stroke="#FF4FD8" stroke-width="2"/>
<line x1="538" y1="118" x2="538" y2="58" stroke="#29C5F6" stroke-width="2"/>
<line x1="637" y1="130" x2="637" y2="102" stroke="#29C5F6" stroke-width="2"/>
<line x1="687" y1="120" x2="687" y2="92" stroke="#29C5F6" stroke-width="2"/>
<line x1="763" y1="138" x2="763" y2="115" stroke="#FF4FD8" stroke-width="2"/>
<line x1="788" y1="146" x2="788" y2="72" stroke="#29C5F6" stroke-width="2"/>
<circle cx="513.5" cy="30.5" r="13.5" stroke="#29C5F6" stroke-width="2"/>
<circle cx="538.5" cy="57.5" r="13.5" stroke="#29C5F6" stroke-width="2"/>
<path d="M527 29.5H603" stroke="#29C5F6"/>
<path d="M552.5 57.5H583.5V29.5" stroke="#29C5F6"/>
<path d="M152 341.5C153.2 341.5 222.833 341.5 257.5 341.5" stroke="#29C5F6"/>
<circle cx="138.5" cy="341.5" r="13.5" stroke="#29C5F6" stroke-width="2"/>
</svg>
