<svg width="19" height="16" viewBox="0 0 19 16" fill="none" xmlns="http://www.w3.org/2000/svg">
<path d="M17.4835 2.34417L19 0.898176V0.581482H13.7478L10.0047 9.87117L5.747 0.581482H0.239974V0.898176L2.01133 3.0242C2.18451 3.18132 2.27357 3.41209 2.2513 3.64286V11.9972C2.30573 12.2992 2.20924 12.606 1.99648 12.8245L0 15.2378V15.5496H5.65547V15.2329L3.66146 12.827C3.55462 12.7193 3.47426 12.5887 3.42663 12.4452C3.379 12.3017 3.36538 12.1492 3.38685 11.9996V4.77215L8.35208 15.5545H8.92852L13.1986 4.77215V13.3622C13.1986 13.588 13.1986 13.6347 13.0501 13.7844L11.5138 15.2648V15.5815H18.9654V15.2648L17.4835 13.8188C17.3548 13.7206 17.288 13.5561 17.3152 13.3965V2.76642C17.3024 2.68753 17.3113 2.60667 17.3409 2.53236C17.3705 2.45805 17.4198 2.39304 17.4835 2.34417Z" fill="#29C5F6"/>
</svg>
