<svg width="18" height="14" viewBox="0 0 18 14" fill="none" xmlns="http://www.w3.org/2000/svg">
<path d="M14.909 1.89282C13.7956 1.39308 12.5998 1.02484 11.349 0.827576C11.1978 1.0906 11.0191 1.44568 10.8954 1.73501C9.56209 1.53774 8.2563 1.53774 6.95051 1.73501C6.8268 1.44568 6.64811 1.0906 6.48317 0.827576C5.23236 1.038 4.03653 1.39308 2.92317 1.90598C0.668965 5.15433 0.050432 8.33692 0.352826 11.4669C1.85105 12.5322 3.29429 13.1897 4.72379 13.6106C5.08116 13.1503 5.38356 12.6505 5.65846 12.1376C5.14989 11.9535 4.65506 11.7168 4.18773 11.4538C4.31143 11.3617 4.43514 11.2696 4.5451 11.1776C7.39035 12.4533 10.4693 12.4533 13.2733 11.1776C13.397 11.2696 13.507 11.3617 13.6307 11.4538C13.1633 11.7168 12.6685 11.9535 12.1599 12.1376C12.4348 12.6505 12.7372 13.1503 13.0946 13.6106C14.5241 13.1897 15.9673 12.5322 17.4656 11.4669C17.8229 7.83718 16.847 4.68088 14.8952 1.89282H14.909ZM6.04332 9.54684C5.19112 9.54684 4.49012 8.78407 4.49012 7.86348C4.49012 6.94289 5.17738 6.16697 6.04332 6.16697C6.90927 6.16697 7.61027 6.92974 7.59653 7.86348C7.59653 8.79722 6.90927 9.54684 6.04332 9.54684ZM11.7751 9.54684C10.9229 9.54684 10.2219 8.78407 10.2219 7.86348C10.2219 6.94289 10.9091 6.16697 11.7751 6.16697C12.641 6.16697 13.342 6.92974 13.3283 7.86348C13.3283 8.79722 12.641 9.54684 11.7751 9.54684Z" fill="#29C5F6"/>
</svg>
