<svg width="31" height="55" viewBox="0 0 31 55" fill="none" xmlns="http://www.w3.org/2000/svg">
<path d="M8.63189 12.6602C12.9307 17.0635 17.9931 22.1083 20.2807 27.5712C22.703 33.3584 20.5731 39.959 17.9967 44.1727C15.4203 48.3864 13.7351 51.8258 14.5786 52.5186C15.422 53.2114 21.25 48.9836 22.586 41.7859C24.0373 33.9662 23.2877 27.9717 17.435 20.8077C10.9301 12.8445 4.41818 7.74305 1.84176 5.964C-0.734669 4.18496 -1.15462 -0.966115 4.18251 0.159077C9.52141 1.2825 25.7685 8.77433 29.7483 17.0157C33.7281 25.2571 26.0024 42.3954 23.7077 46.3752C27.0797 38.0878 32.089 24.8353 28.437 17.5774C24.785 10.3195 10.6448 3.99713 7.22673 2.92156C3.80863 1.84598 0.812251 1.42248 2.40347 3.53111C3.99468 5.63974 8.39622 8.02656 14.2029 14.1611C20.0096 20.2956 23.3799 25.1649 24.6911 31.1116C26.0024 37.0583 24.5511 44.0823 21.9747 48.436C19.3983 52.7897 15.6542 55.554 13.2656 54.1488C10.877 52.7436 15.4344 45.8525 17.5271 41.8337C19.7722 37.5243 21.8826 31.2037 17.9488 25.0232C14.0151 18.8426 11.5344 15.8923 8.63012 12.662L8.63189 12.6602Z" fill="url(#paint0_linear_3966_874)"/>
<defs>
<linearGradient id="paint0_linear_3966_874" x1="6.32658" y1="-1.48353" x2="27.7052" y2="51.1684" gradientUnits="userSpaceOnUse">
<stop offset="0.21" stop-color="#29C5F6"/>
<stop offset="0.51" stop-color="#1B88DD"/>
<stop offset="0.87" stop-color="#29C5F6"/>
</linearGradient>
</defs>
</svg>
