<svg width="45" height="40" viewBox="0 0 45 40" fill="none" xmlns="http://www.w3.org/2000/svg">
<g clip-path="url(#clip0_3966_881)">
<path d="M11.1714 12H33.1714V28.0002H11.1714V12Z" fill="white"/>
<path d="M23.5464 11.9999H20.7964V18.4999H11.1714V21.4999H20.7964V27.9998H23.5464V21.4999H33.1714V18.4999H23.5464V11.9999Z" fill="#D80027"/>
<path d="M28.0917 22.7824L33.1712 25.861V22.7824H28.0917ZM24.5625 22.7824L33.1712 27.9998V26.5244L26.9969 22.7824H24.5625ZM30.8781 27.9998L24.5625 24.1718V27.9998H30.8781Z" fill="#0052B4"/>
<path d="M24.5625 22.7824L33.1712 27.9998V26.5244L26.9969 22.7824H24.5625Z" fill="white"/>
<path d="M24.5625 22.7824L33.1712 27.9998V26.5244L26.9969 22.7824H24.5625Z" fill="#D80027"/>
<path d="M15.0532 22.7823L11.1714 25.135V22.7823H15.0532ZM19.7801 23.4458V27.9998H12.2667L19.7801 23.4458Z" fill="#0052B4"/>
<path d="M17.3457 22.7824L11.1714 26.5244V27.9998L19.7801 22.7824H17.3457Z" fill="#D80027"/>
<path d="M16.2509 17.2173L11.1714 14.1387V17.2173H16.2509ZM19.7801 17.2173L11.1714 11.9999V13.4752L17.3457 17.2173H19.7801ZM13.4645 11.9999L19.7801 15.8279V11.9999H13.4645Z" fill="#0052B4"/>
<path d="M19.7801 17.2173L11.1714 11.9999V13.4752L17.3457 17.2173H19.7801Z" fill="white"/>
<path d="M19.7801 17.2173L11.1714 11.9999V13.4752L17.3457 17.2173H19.7801Z" fill="#D80027"/>
<path d="M29.2894 17.2173L33.1712 14.8646V17.2173H29.2894ZM24.5625 16.5538V11.9999H32.0759L24.5625 16.5538Z" fill="#0052B4"/>
<path d="M26.9969 17.2173L33.1712 13.4752V11.9999L24.5625 17.2173H26.9969Z" fill="#D80027"/>
</g>
<defs>
<clipPath id="clip0_3966_881">
<rect width="22" height="16" fill="white" transform="translate(11.1714 12)"/>
</clipPath>
</defs>
</svg>
